<svg width="16" height="16" viewBox="0 0 16 16" fill="none" xmlns="http://www.w3.org/2000/svg">
<path d="M2.33333 6.66659C2.33333 4.15259 2.33333 2.89525 3.16333 2.11459C3.99333 1.33392 5.32867 1.33325 8 1.33325H8.51533C10.6887 1.33325 11.7767 1.33325 12.5313 1.86525C12.7473 2.01725 12.9393 2.19859 13.1013 2.40192C13.6667 3.11259 13.6667 4.13525 13.6667 6.18192V7.87859C13.6667 9.85392 13.6667 10.8419 13.354 11.6306C12.8513 12.8993 11.7887 13.8993 10.4407 14.3726C9.60267 14.6666 8.554 14.6666 6.454 14.6666C5.25533 14.6666 4.65533 14.6666 4.17667 14.4986C3.40667 14.2279 2.79933 13.6566 2.512 12.9319C2.33333 12.4813 2.33333 11.9166 2.33333 10.7879V6.66659Z" stroke="#7B9FC3" stroke-linecap="round" stroke-linejoin="round"/>
<path d="M13.6667 7.99984C13.6667 8.58915 13.4326 9.15432 13.0159 9.57103C12.5992 9.98773 12.034 10.2218 11.4447 10.2218C11.0007 10.2218 10.4773 10.1445 10.046 10.2598C9.85761 10.3105 9.68583 10.4098 9.54789 10.5477C9.40994 10.6857 9.31066 10.8574 9.26 11.0458C9.14467 11.4772 9.222 12.0005 9.222 12.4445C9.222 12.7363 9.16453 13.0252 9.05286 13.2948C8.94119 13.5644 8.77752 13.8094 8.57119 14.0157C8.36486 14.222 8.11991 14.3857 7.85032 14.4974C7.58074 14.609 7.2918 14.6665 7 14.6665M5.33333 4.6665H10M5.33333 7.33317H7.33333" stroke="#7B9FC3" stroke-linecap="round" stroke-linejoin="round"/>
</svg>
