<svg width="16" height="16" viewBox="0 0 16 16" fill="none" xmlns="http://www.w3.org/2000/svg">
<path d="M1.33333 8C1.33333 5.17133 1.33333 3.75733 2.30933 2.87867C3.28667 2 4.85733 2 8 2C11.1427 2 12.714 2 13.69 2.87867C14.666 3.75733 14.6667 5.172 14.6667 8C14.6667 10.828 14.6667 12.2427 13.69 13.1213C12.7147 14 11.1427 14 8 14C4.85733 14 3.286 14 2.30933 13.1213C1.33267 12.2427 1.33333 10.828 1.33333 8Z" stroke="#7B9FC3" stroke-linecap="round" stroke-linejoin="round"/>
<path d="M4 10.6666H6.66667M9.33333 5.33325H12M9.33333 7.99992H12M9.33333 10.6666H12M5.6 5.33325H5.06667C4.564 5.33325 4.31267 5.33325 4.156 5.48925C4 5.64659 4 5.89725 4 6.39992V6.93325C4 7.43592 4 7.68725 4.156 7.84392C4.31333 7.99992 4.564 7.99992 5.06667 7.99992H5.6C6.10267 7.99992 6.354 7.99992 6.51067 7.84392C6.66667 7.68659 6.66667 7.43592 6.66667 6.93325V6.39992C6.66667 5.89725 6.66667 5.64592 6.51067 5.48925C6.35333 5.33325 6.10267 5.33325 5.6 5.33325Z" stroke="#7B9FC3" stroke-linecap="round" stroke-linejoin="round"/>
</svg>
